<svg width="175" height="224" viewBox="0 0 175 224" fill="none" xmlns="http://www.w3.org/2000/svg">
<g clip-path="url(#clip0_769_685649)">
<path d="M84.6629 64.9793V13.5769H118.036V170.259C100.661 173.529 87.823 174.816 73.9448 174.816C53.0185 174.794 37.1957 170.106 26.6095 161.013C16.037 151.932 10.6094 138.389 10.6094 120.476C10.6094 103.232 16.3636 89.0558 26.5378 79.1907C36.7135 69.324 51.3557 63.7258 69.2108 63.7258C74.7513 63.7258 78.9551 64.1612 84.0388 65.4636L84.6629 65.6235V64.9793ZM85.8674 93.38V93.0174L85.5227 92.9048C81.4395 91.5707 78.0687 91.1265 73.7772 91.1265C64.9813 91.1265 57.9797 93.8129 53.1803 98.9118C48.385 104.006 45.8504 111.444 45.8504 120.826C45.8504 129.96 48.2735 137.126 52.9915 142.008C57.7122 146.893 64.6599 149.42 73.5566 149.42C77.3865 149.42 80.5058 149.204 85.4338 148.544L85.8674 148.486V148.049V93.38Z" stroke="white"/>
<path d="M166.294 197.637L166.291 197.643C160.805 208.303 153.599 215.053 138.639 222.521L107.925 208.043C122.501 201.148 129.744 194.915 134.404 185.465C139.373 175.618 140.914 164.236 140.914 134.615V67.9576H174.243V146.363C174.243 173.528 172.205 186.487 166.294 197.637ZM137.45 13.5769H170.823V47.5147H137.45V13.5769Z" stroke="white"/>
<path d="M74.1629 0.0769043H108.536V157.674C90.9292 161.005 77.9681 162.316 63.9443 162.316C21.9627 162.272 0.109375 143.51 0.109375 107.476C0.109375 72.758 23.2898 50.2258 59.2108 50.2258C64.785 50.2258 69.0314 50.6646 74.1629 51.9793V0.0769043ZM75.3674 80.38C71.3417 79.0647 68.0243 78.6265 63.7772 78.6265C46.3922 78.6265 36.3504 89.2347 36.3504 107.826C36.3504 125.926 45.9503 135.92 63.5566 135.92C67.3604 135.92 70.4572 135.706 75.3674 135.049V80.38Z" fill="#FEC506"/>
<path d="M164.743 54.4569V133.363C164.743 160.537 162.708 173.605 156.736 184.871C151.162 195.703 143.819 202.533 128.645 210.077L96.75 195.041C111.923 187.987 119.267 181.754 123.956 172.242C128.866 162.515 130.414 151.248 130.414 121.615V54.4576H164.743V54.4569ZM126.95 0.0769043H161.323V35.0147H126.95V0.0769043Z" fill="#FEC506"/>
</g>
<defs>
<clipPath id="clip0_769_685649">
<rect width="174.634" height="223" fill="white" transform="translate(0.109375 0.0769043)"/>
</clipPath>
</defs>
</svg>
